<svg width="52" height="52" viewBox="0 0 52 52" fill="none" xmlns="http://www.w3.org/2000/svg">
<path d="M34 17C34 21.9706 30.4183 26 26 26C21.5817 26 18 21.9706 18 17C18 12.0294 21.5817 8 26 8C30.4183 8 34 12.0294 34 17Z" fill="#1E77FC"/>
<path d="M42.8294 42.0091C43.0176 43.0975 42.0975 44 40.9929 44C33.6701 44 34.6689 44 26 44C17.1449 44 21.2127 44 11.0071 44C9.90249 44 8.98242 43.0975 9.17058 42.0091C10.3442 35.2201 17.4319 30 26 30C34.5681 30 41.6558 35.2201 42.8294 42.0091Z" fill="#1E77FC"/>
</svg>
