<svg width="52" height="52" viewBox="0 0 52 52" fill="none" xmlns="http://www.w3.org/2000/svg">
<path d="M18.3824 20.338C18.3824 24.2829 15.7488 27.4809 12.5 27.4809C9.2513 27.4809 6.61768 24.2829 6.61768 20.338C6.61768 16.3932 9.2513 13.1952 12.5 13.1952C15.7488 13.1952 18.3824 16.3932 18.3824 20.338Z" fill="#1E77FC"/>
<path d="M12.5 30.6555C6.35959 30.6555 1.25329 34.591 0.199374 39.7792C-0.0205133 40.8617 0.89913 41.7666 2.0037 41.7666H10.7186C10.7186 41.7666 10 41.6952 10 40.1952C11 34.1952 16 31.0969 16 31.0969C14.8894 30.8095 13.7149 30.6555 12.5 30.6555Z" fill="#1E77FC"/>
<path d="M45.5338 20.338C45.5338 24.2829 42.9001 27.4809 39.6514 27.4809C36.4027 27.4809 33.769 24.2829 33.769 20.338C33.769 16.3932 36.4027 13.1952 39.6514 13.1952C42.9001 13.1952 45.5338 16.3932 45.5338 20.338Z" fill="#1E77FC"/>
<path d="M39.5 30.6552C45.6404 30.6552 50.7467 34.5908 51.8006 39.779C52.0205 40.8615 51.1009 41.7663 49.9963 41.7663H41.2814C41.2814 41.7663 42 41.6949 42 40.1949C41 34.1949 36 31.0966 36 31.0966C37.1106 30.8093 38.2851 30.6552 39.5 30.6552Z" fill="#1E77FC"/>
<path d="M32.7879 18.0976C32.7879 22.462 29.7489 26.0001 26 26.0001C22.2512 26.0001 19.2122 22.462 19.2122 18.0976C19.2122 13.7332 22.2512 10.1952 26 10.1952C29.7489 10.1952 32.7879 13.7332 32.7879 18.0976Z" fill="#1E77FC"/>
<path d="M40.2364 39.8162C40.4435 40.9012 39.5273 41.8049 38.4227 41.8049C32.5333 41.8049 33.2353 41.8049 25.9999 41.8049C18.5755 41.8049 21.8577 41.8049 13.5813 41.8049C12.4767 41.8049 11.5564 40.9012 11.7635 39.8162C12.8788 33.9728 18.8281 29.5122 25.9999 29.5122C33.1717 29.5122 39.121 33.9728 40.2364 39.8162Z" fill="#1E77FC"/>
</svg>
